#N canvas 127 98 1260 710 10;
#X obj 64 29 receive fromGUI;
#X obj 26 85 print;
#X obj 80 151 route list;
#X obj 80 210 tgl 15 0 empty empty empty 17 7 0 10 -262144 -1 -1 0
1;
#X obj 142 211 tgl 15 0 empty empty empty 17 7 0 10 -262144 -1 -1 0
1;
#X obj 212 209 tgl 15 0 empty empty empty 17 7 0 10 -262144 -1 -1 0
1;
#X obj 281 210 tgl 15 0 empty empty empty 17 7 0 10 -262144 -1 -1 0
1;
#X obj 1092 545 AudioPaths_playChord 60;
#X obj 885 450 AudioPaths_playChord 57;
#X obj 755 339 AudioPaths_playChord 53;
#X obj 1140 459 AudioPaths_playChord 55;
#X obj 81 178 route /button/C /button/F /button/G /button/A;
#X obj 465 238 AudioPaths_playChord 60;
#X obj 30 560 noteout;
#X obj 201 371 loadbang;
#X obj 68 480 i;
#X obj 119 481 i;
#X obj 25 478 i;
#X obj 82 451 + 4;
#X obj 185 442 + 7;
#X obj 21 356 * 127;
#X obj 24 386 t b f b f b f;
#X obj 200 396 60;
#X obj 246 675 noteout;
#X obj 417 486 loadbang;
#X obj 284 595 i;
#X obj 335 596 i;
#X obj 241 593 i;
#X obj 298 566 + 4;
#X obj 401 557 + 7;
#X obj 237 471 * 127;
#X obj 240 501 t b f b f b f;
#X obj 416 511 53;
#X obj 501 667 noteout;
#X obj 672 478 loadbang;
#X obj 539 587 i;
#X obj 590 588 i;
#X obj 496 585 i;
#X obj 553 558 + 4;
#X obj 656 549 + 7;
#X obj 492 463 * 127;
#X obj 495 493 t b f b f b f;
#X obj 671 503 55;
#X obj 750 674 noteout;
#X obj 921 485 loadbang;
#X obj 788 594 i;
#X obj 839 595 i;
#X obj 745 592 i;
#X obj 905 556 + 7;
#X obj 741 470 * 127;
#X obj 744 500 t b f b f b f;
#X obj 920 510 57;
#X obj 802 565 + 3;
#X connect 0 0 1 0;
#X connect 0 0 2 0;
#X connect 2 0 11 0;
#X connect 3 0 20 0;
#X connect 4 0 30 0;
#X connect 5 0 40 0;
#X connect 6 0 49 0;
#X connect 11 0 3 0;
#X connect 11 1 4 0;
#X connect 11 2 5 0;
#X connect 11 3 6 0;
#X connect 14 0 22 0;
#X connect 15 0 13 0;
#X connect 16 0 13 0;
#X connect 17 0 13 0;
#X connect 18 0 15 1;
#X connect 19 0 16 1;
#X connect 20 0 21 0;
#X connect 21 0 17 0;
#X connect 21 1 13 1;
#X connect 21 2 15 0;
#X connect 21 3 13 1;
#X connect 21 4 16 0;
#X connect 21 5 13 1;
#X connect 22 0 17 1;
#X connect 22 0 18 0;
#X connect 22 0 19 0;
#X connect 24 0 32 0;
#X connect 25 0 23 0;
#X connect 26 0 23 0;
#X connect 27 0 23 0;
#X connect 28 0 25 1;
#X connect 29 0 26 1;
#X connect 30 0 31 0;
#X connect 31 0 27 0;
#X connect 31 1 23 1;
#X connect 31 2 25 0;
#X connect 31 3 23 1;
#X connect 31 4 26 0;
#X connect 31 5 23 1;
#X connect 32 0 27 1;
#X connect 32 0 28 0;
#X connect 32 0 29 0;
#X connect 34 0 42 0;
#X connect 35 0 33 0;
#X connect 36 0 33 0;
#X connect 37 0 33 0;
#X connect 38 0 35 1;
#X connect 39 0 36 1;
#X connect 40 0 41 0;
#X connect 41 0 37 0;
#X connect 41 1 33 1;
#X connect 41 2 35 0;
#X connect 41 3 33 1;
#X connect 41 4 36 0;
#X connect 41 5 33 1;
#X connect 42 0 37 1;
#X connect 42 0 38 0;
#X connect 42 0 39 0;
#X connect 44 0 51 0;
#X connect 45 0 43 0;
#X connect 46 0 43 0;
#X connect 47 0 43 0;
#X connect 48 0 46 1;
#X connect 49 0 50 0;
#X connect 50 0 47 0;
#X connect 50 1 43 1;
#X connect 50 2 45 0;
#X connect 50 3 43 1;
#X connect 50 4 46 0;
#X connect 50 5 43 1;
#X connect 51 0 47 1;
#X connect 51 0 48 0;
#X connect 51 0 52 0;
#X connect 52 0 45 1;
