#N canvas 717 260 900 585 10;
#X obj 64 29 receive fromGUI;
#X obj 26 85 print;
#X obj 80 151 route list;
#X obj 80 210 tgl 15 0 empty empty empty 17 7 0 10 -262144 -1 -1 0
1;
#X obj 142 211 tgl 15 0 empty empty empty 17 7 0 10 -262144 -1 -1 0
1;
#X obj 81 178 route /button/1 /button/2 /button/3 /button/4;
#X obj 212 209 tgl 15 0 empty empty empty 17 7 0 10 -262144 -1 -1 0
1;
#X obj 281 210 tgl 15 0 empty empty empty 17 7 0 10 -262144 -1 -1 0
1;
#X obj 292 301 AudioPaths_playChord 60;
#X obj 726 295 AudioPaths_playChord 57;
#X obj 447 301 AudioPaths_playChord 53;
#X obj 595 303 AudioPaths_playChord 55;
#X connect 0 0 1 0;
#X connect 0 0 2 0;
#X connect 2 0 5 0;
#X connect 3 0 8 0;
#X connect 4 0 10 0;
#X connect 5 0 3 0;
#X connect 5 1 4 0;
#X connect 5 2 6 0;
#X connect 5 3 7 0;
#X connect 6 0 11 0;
#X connect 7 0 9 0;
