#N canvas 0 23 738 566 10;
#X obj 32 264 noteout;
#X obj 204 0 loadbang;
#X obj 22 25 inlet;
#X obj 203 100 \$1;
#X obj 70 184 i;
#X obj 121 185 i;
#X obj 27 182 i;
#X obj 145 148 + 4;
#X obj 187 146 + 7;
#X obj 23 60 * 127;
#X obj 26 90 t b f b f b f;
#X obj 201 432 *~;
#X obj 200 216 mtof;
#X obj 386 247 line~;
#X msg 387 218 \$1 100;
#X obj 386 278 lop~ 10;
#X obj 250 216 mtof;
#X obj 302 217 mtof;
#X obj 285 60 \$2;
#X obj 201 39 t b b;
#X text 256 33 arguments: root note \, major/minor (0/1);
#X obj 285 85 sel 1;
#X obj 285 109 3;
#X obj 200 239 phasor~;
#X obj 250 239 phasor~;
#X obj 302 240 phasor~;
#X obj 200 379 *~ 0.3;
#X obj 250 379 *~ 0.3;
#X obj 302 380 *~ 0.3;
#X obj 204 491 outlet~;
#X connect 1 0 19 0;
#X connect 2 0 9 0;
#X connect 2 0 14 0;
#X connect 3 0 6 1;
#X connect 3 0 7 0;
#X connect 3 0 8 0;
#X connect 3 0 12 0;
#X connect 4 0 0 0;
#X connect 5 0 0 0;
#X connect 6 0 0 0;
#X connect 7 0 4 1;
#X connect 7 0 16 0;
#X connect 8 0 5 1;
#X connect 8 0 17 0;
#X connect 9 0 10 0;
#X connect 10 0 6 0;
#X connect 10 1 0 1;
#X connect 10 2 4 0;
#X connect 10 3 0 1;
#X connect 10 4 5 0;
#X connect 10 5 0 1;
#X connect 11 0 29 0;
#X connect 12 0 23 0;
#X connect 13 0 15 0;
#X connect 14 0 13 0;
#X connect 15 0 11 1;
#X connect 16 0 24 0;
#X connect 17 0 25 0;
#X connect 18 0 21 0;
#X connect 19 0 3 0;
#X connect 19 1 18 0;
#X connect 21 0 22 0;
#X connect 22 0 7 1;
#X connect 23 0 26 0;
#X connect 24 0 27 0;
#X connect 25 0 28 0;
#X connect 26 0 11 0;
#X connect 27 0 11 0;
#X connect 28 0 11 0;
