#N canvas 0 23 450 300 10;
#X obj 32 264 noteout;
#X obj 203 75 loadbang;
#X obj 22 25 inlet;
#X obj 202 100 \$1;
#X obj 70 184 i;
#X obj 121 185 i;
#X obj 27 182 i;
#X obj 145 148 + 4;
#X obj 187 146 + 7;
#X obj 23 60 * 127;
#X obj 26 90 t b f b f b f;
#X obj 198 192 osc~ 440;
#X obj 197 228 *~;
#X obj 205 254 dac~;
#X connect 1 0 3 0;
#X connect 2 0 9 0;
#X connect 2 0 12 1;
#X connect 3 0 6 1;
#X connect 3 0 7 0;
#X connect 3 0 8 0;
#X connect 4 0 0 0;
#X connect 5 0 0 0;
#X connect 6 0 0 0;
#X connect 7 0 4 1;
#X connect 8 0 5 1;
#X connect 9 0 10 0;
#X connect 10 0 6 0;
#X connect 10 1 0 1;
#X connect 10 2 4 0;
#X connect 10 3 0 1;
#X connect 10 4 5 0;
#X connect 10 5 0 1;
#X connect 11 0 12 0;
#X connect 12 0 13 0;
#X connect 12 0 13 1;
