#N canvas 179 62 1260 710 10;
#X obj 64 29 receive fromGUI;
#X obj 26 85 print;
#X obj 80 151 route list;
#X obj 80 210 tgl 15 0 empty empty empty 17 7 0 10 -262144 -1 -1 0
1;
#X obj 142 211 tgl 15 0 empty empty empty 17 7 0 10 -262144 -1 -1 0
1;
#X obj 212 209 tgl 15 0 empty empty empty 17 7 0 10 -262144 -1 -1 0
1;
#X obj 281 210 tgl 15 0 empty empty empty 17 7 0 10 -262144 -1 -1 0
1;
#X obj 81 178 route /button/C /button/F /button/G /button/A;
#X obj 30 560 noteout;
#X obj 201 371 loadbang;
#X obj 68 480 i;
#X obj 119 481 i;
#X obj 25 478 i;
#X obj 82 451 + 4;
#X obj 185 442 + 7;
#X obj 21 356 * 127;
#X obj 24 386 t b f b f b f;
#X obj 200 396 60;
#X obj 246 675 noteout;
#X obj 417 486 loadbang;
#X obj 284 595 i;
#X obj 335 596 i;
#X obj 241 593 i;
#X obj 298 566 + 4;
#X obj 401 557 + 7;
#X obj 237 471 * 127;
#X obj 240 501 t b f b f b f;
#X obj 416 511 53;
#X obj 501 667 noteout;
#X obj 672 478 loadbang;
#X obj 539 587 i;
#X obj 590 588 i;
#X obj 496 585 i;
#X obj 553 558 + 4;
#X obj 656 549 + 7;
#X obj 492 463 * 127;
#X obj 495 493 t b f b f b f;
#X obj 671 503 55;
#X obj 750 674 noteout;
#X obj 921 485 loadbang;
#X obj 788 594 i;
#X obj 839 595 i;
#X obj 745 592 i;
#X obj 905 556 + 7;
#X obj 741 470 * 127;
#X obj 744 500 t b f b f b f;
#X obj 920 510 57;
#X obj 802 565 + 3;
#X obj 167 257 AudioPaths_playChord 53;
#X text 224 21 Proof of concept: set chords in Pd patch.;
#X obj 1092 545 AudioPaths_playChord 60;
#X obj 280 343 AudioPaths_playChord 55;
#X obj 447 272 AudioPaths_playChord 57 1;
#X obj 290 413 lop~ 1000;
#X obj 294 447 dac~;
#X obj 90 295 AudioPaths_playChord 60 0;
#X connect 0 0 1 0;
#X connect 0 0 2 0;
#X connect 2 0 7 0;
#X connect 3 0 15 0;
#X connect 3 0 55 0;
#X connect 4 0 25 0;
#X connect 4 0 48 0;
#X connect 5 0 35 0;
#X connect 5 0 51 0;
#X connect 6 0 44 0;
#X connect 6 0 52 0;
#X connect 7 0 3 0;
#X connect 7 1 4 0;
#X connect 7 2 5 0;
#X connect 7 3 6 0;
#X connect 9 0 17 0;
#X connect 10 0 8 0;
#X connect 11 0 8 0;
#X connect 12 0 8 0;
#X connect 13 0 10 1;
#X connect 14 0 11 1;
#X connect 15 0 16 0;
#X connect 16 0 12 0;
#X connect 16 1 8 1;
#X connect 16 2 10 0;
#X connect 16 3 8 1;
#X connect 16 4 11 0;
#X connect 16 5 8 1;
#X connect 17 0 12 1;
#X connect 17 0 13 0;
#X connect 17 0 14 0;
#X connect 19 0 27 0;
#X connect 20 0 18 0;
#X connect 21 0 18 0;
#X connect 22 0 18 0;
#X connect 23 0 20 1;
#X connect 24 0 21 1;
#X connect 25 0 26 0;
#X connect 26 0 22 0;
#X connect 26 1 18 1;
#X connect 26 2 20 0;
#X connect 26 3 18 1;
#X connect 26 4 21 0;
#X connect 26 5 18 1;
#X connect 27 0 22 1;
#X connect 27 0 23 0;
#X connect 27 0 24 0;
#X connect 29 0 37 0;
#X connect 30 0 28 0;
#X connect 31 0 28 0;
#X connect 32 0 28 0;
#X connect 33 0 30 1;
#X connect 34 0 31 1;
#X connect 35 0 36 0;
#X connect 36 0 32 0;
#X connect 36 1 28 1;
#X connect 36 2 30 0;
#X connect 36 3 28 1;
#X connect 36 4 31 0;
#X connect 36 5 28 1;
#X connect 37 0 32 1;
#X connect 37 0 33 0;
#X connect 37 0 34 0;
#X connect 39 0 46 0;
#X connect 40 0 38 0;
#X connect 41 0 38 0;
#X connect 42 0 38 0;
#X connect 43 0 41 1;
#X connect 44 0 45 0;
#X connect 45 0 42 0;
#X connect 45 1 38 1;
#X connect 45 2 40 0;
#X connect 45 3 38 1;
#X connect 45 4 41 0;
#X connect 45 5 38 1;
#X connect 46 0 42 1;
#X connect 46 0 43 0;
#X connect 46 0 47 0;
#X connect 47 0 40 1;
#X connect 48 0 53 0;
#X connect 51 0 53 0;
#X connect 52 0 53 0;
#X connect 53 0 54 0;
#X connect 53 0 54 1;
#X connect 55 0 53 0;
